<svg version="1.1" id="Layer_1" xmlns="http://www.w3.org/2000/svg" xmlns:xlink="http://www.w3.org/1999/xlink" x="0px" y="0px"
	 width="100%" viewBox="0 0 185 152" enable-background="new 0 0 185 152" xml:space="preserve">
<path fill="#FFFDFD" opacity="1.000000" stroke="none" 
	d="
M91.000000,153.000000 
	C60.666672,153.000000 30.833340,153.000000 1.000008,153.000000 
	C1.000005,102.333344 1.000005,51.666687 1.000003,1.000022 
	C62.666653,1.000014 124.333305,1.000014 185.999969,1.000007 
	C185.999969,51.666641 185.999969,102.333282 185.999985,152.999969 
	C154.500000,153.000000 123.000000,153.000000 91.000000,153.000000 
M58.012325,136.770264 
	C64.983994,135.271103 72.072639,134.168320 78.892769,132.155670 
	C85.086784,130.327820 85.245216,129.273697 83.135498,123.223251 
	C78.608772,110.241119 80.597664,104.734360 92.592529,97.609161 
	C105.295921,90.063095 115.407738,79.932945 123.420776,67.555527 
	C125.988861,63.588722 126.538025,59.927914 124.754723,55.410885 
	C117.946327,38.165466 99.331749,27.495035 81.233139,31.345253 
	C67.553459,34.255405 57.802567,42.228352 52.628475,55.591484 
	C55.998108,56.860336 59.052952,57.739277 61.864964,59.114685 
	C77.209290,66.619888 79.735321,84.847519 66.866920,95.715073 
	C63.198509,98.813095 58.986855,101.261002 55.087032,104.093384 
	C48.419495,108.935898 40.313606,111.937256 35.771294,119.505005 
	C32.140690,125.553787 33.054176,129.299820 38.458847,133.665207 
	C44.232780,138.328873 50.714127,136.845047 58.012325,136.770264 
M171.955978,78.732903 
	C165.906586,62.097797 146.658661,58.328629 133.721878,61.925049 
	C132.771820,62.189167 131.641678,63.028358 131.249573,63.895927 
	C123.471481,81.105186 110.089470,93.033150 94.511047,102.820053 
	C86.089760,108.110603 84.707581,111.592758 88.155838,120.987099 
	C88.555420,122.075722 88.948586,123.166840 89.362267,124.250107 
	C90.939522,128.380402 89.864052,131.740570 86.368469,134.342865 
	C84.851761,135.471970 83.246826,136.482574 81.049667,137.977097 
	C82.624001,138.072876 83.398613,138.160431 84.173286,138.161057 
	C95.142052,138.169998 106.110832,138.167145 117.103958,138.167145 
	C120.486214,129.077072 127.991005,123.904808 134.857559,118.277489 
	C145.785645,109.321640 156.983994,100.696129 168.032532,91.886383 
	C172.055832,88.678345 173.621445,84.570854 171.955978,78.732903 
M46.175968,61.597546 
	C31.042622,64.626129 18.803080,76.709091 16.077475,91.310982 
	C13.385065,105.735031 18.423239,121.098381 27.049402,126.463318 
	C28.581865,122.982918 29.464239,118.818306 31.890224,115.967094 
	C35.689911,111.501404 40.287853,107.598488 44.994331,104.049545 
	C51.213253,99.360130 58.020096,95.452950 64.268127,90.798630 
	C67.879593,88.108345 70.869888,84.641327 70.006004,79.409851 
	C68.093201,67.826363 58.964977,60.633549 46.175968,61.597546 
M129.120773,130.660156 
	C127.209061,132.775299 125.297348,134.890457 122.437698,138.054413 
	C131.831711,138.054413 139.615952,138.564011 147.312851,137.960190 
	C171.762604,136.042099 188.244934,108.132065 179.057007,87.044098 
	C175.114563,91.238747 171.173981,96.308502 166.376007,100.363861 
	C154.335083,110.541145 141.906342,120.259590 129.120773,130.660156 
z"/>
<path fill="#FF1818" opacity="1.000000" stroke="none" 
	d="
M57.554123,136.811859 
	C50.714127,136.845047 44.232780,138.328873 38.458847,133.665207 
	C33.054176,129.299820 32.140690,125.553787 35.771294,119.505005 
	C40.313606,111.937256 48.419495,108.935898 55.087032,104.093384 
	C58.986855,101.261002 63.198509,98.813095 66.866920,95.715073 
	C79.735321,84.847519 77.209290,66.619888 61.864964,59.114685 
	C59.052952,57.739277 55.998108,56.860336 52.628475,55.591484 
	C57.802567,42.228352 67.553459,34.255405 81.233139,31.345253 
	C99.331749,27.495035 117.946327,38.165466 124.754723,55.410885 
	C126.538025,59.927914 125.988861,63.588722 123.420776,67.555527 
	C115.407738,79.932945 105.295921,90.063095 92.592529,97.609161 
	C80.597664,104.734360 78.608772,110.241119 83.135498,123.223251 
	C85.245216,129.273697 85.086784,130.327820 78.892769,132.155670 
	C72.072639,134.168320 64.983994,135.271103 57.554123,136.811859 
z"/>
<path fill="#FF1818" opacity="1.000000" stroke="none" 
	d="
M172.030533,79.114647 
	C173.621445,84.570854 172.055832,88.678345 168.032532,91.886383 
	C156.983994,100.696129 145.785645,109.321640 134.857559,118.277489 
	C127.991005,123.904808 120.486214,129.077072 117.103958,138.167145 
	C106.110832,138.167145 95.142052,138.169998 84.173286,138.161057 
	C83.398613,138.160431 82.624001,138.072876 81.049667,137.977097 
	C83.246826,136.482574 84.851761,135.471970 86.368469,134.342865 
	C89.864052,131.740570 90.939522,128.380402 89.362267,124.250107 
	C88.948586,123.166840 88.555420,122.075722 88.155838,120.987099 
	C84.707581,111.592758 86.089760,108.110603 94.511047,102.820053 
	C110.089470,93.033150 123.471481,81.105186 131.249573,63.895927 
	C131.641678,63.028358 132.771820,62.189167 133.721878,61.925049 
	C146.658661,58.328629 165.906586,62.097797 172.030533,79.114647 
z"/>
<path fill="#FF1919" opacity="1.000000" stroke="none" 
	d="
M46.569588,61.464851 
	C58.964977,60.633549 68.093201,67.826363 70.006004,79.409851 
	C70.869888,84.641327 67.879593,88.108345 64.268127,90.798630 
	C58.020096,95.452950 51.213253,99.360130 44.994331,104.049545 
	C40.287853,107.598488 35.689911,111.501404 31.890224,115.967094 
	C29.464239,118.818306 28.581865,122.982918 27.049402,126.463318 
	C18.423239,121.098381 13.385065,105.735031 16.077475,91.310982 
	C18.803080,76.709091 31.042622,64.626129 46.569588,61.464851 
z"/>
<path fill="#FF1919" opacity="1.000000" stroke="none" 
	d="
M129.376953,130.411102 
	C141.906342,120.259590 154.335083,110.541145 166.376007,100.363861 
	C171.173981,96.308502 175.114563,91.238747 179.057007,87.044098 
	C188.244934,108.132065 171.762604,136.042099 147.312851,137.960190 
	C139.615952,138.564011 131.831711,138.054413 122.437698,138.054413 
	C125.297348,134.890457 127.209061,132.775299 129.376953,130.411102 
z"/>
</svg>